<svg width="478" height="70" viewBox="0 0 478 70" fill="none" xmlns="http://www.w3.org/2000/svg">
<path d="M2.86102e-06 68.352V1.15199H39.168C43.648 1.15199 47.616 2.04799 51.072 3.83998C54.528 5.63198 57.248 8.12799 59.232 11.328C61.28 14.464 62.304 18.048 62.304 22.08C62.304 26.24 61.184 29.984 58.944 33.312C56.768 36.64 53.824 39.296 50.112 41.28C46.464 43.2 42.4 44.16 37.92 44.16H12.192V68.352H2.86102e-06ZM51.072 68.352L28.224 38.016L41.472 35.616L66.24 68.448L51.072 68.352ZM12.192 33.312H36.672C38.912 33.312 40.992 32.832 42.912 31.872C44.832 30.848 46.368 29.536 47.52 27.936C48.672 26.272 49.248 24.416 49.248 22.368C49.248 20.448 48.672 18.752 47.52 17.28C46.368 15.808 44.832 14.624 42.912 13.728C40.992 12.832 38.88 12.384 36.576 12.384H12.192V33.312ZM118.627 69.312C113.635 69.312 109.027 68.832 104.803 67.872C100.579 66.912 96.7068 65.504 93.1868 63.648C89.7308 61.792 86.5628 59.552 83.6828 56.928L90.5948 46.656C95.1388 50.752 99.7468 53.76 104.419 55.68C109.091 57.536 113.987 58.464 119.107 58.464C122.051 58.464 124.899 58.144 127.651 57.504C130.467 56.8 132.803 55.744 134.659 54.336C136.515 52.928 137.443 51.072 137.443 48.768C137.443 47.36 136.963 46.208 136.003 45.312C135.043 44.352 133.763 43.584 132.163 43.008C130.563 42.432 128.803 41.984 126.883 41.664C124.963 41.28 123.043 40.992 121.123 40.8C119.203 40.608 117.475 40.448 115.939 40.32C111.587 39.808 107.619 39.072 104.035 38.112C100.515 37.088 97.5068 35.776 95.0108 34.176C92.5148 32.576 90.5948 30.656 89.2508 28.416C87.9068 26.112 87.2348 23.456 87.2348 20.448C87.2348 17.184 88.0028 14.304 89.5388 11.808C91.1388 9.24799 93.3468 7.10399 96.1628 5.37599C99.0428 3.64799 102.339 2.33599 106.051 1.43999C109.827 0.479988 113.891 -1.14441e-05 118.243 -1.14441e-05C122.851 -1.14441e-05 127.043 0.447989 130.819 1.34399C134.595 2.23999 137.955 3.51999 140.899 5.18398C143.843 6.78399 146.275 8.73599 148.195 11.04L140.899 19.968C139.043 17.984 136.899 16.32 134.467 14.976C132.035 13.632 129.411 12.64 126.595 12C123.779 11.296 120.867 10.944 117.859 10.944C114.595 10.944 111.651 11.264 109.027 11.904C106.467 12.544 104.419 13.472 102.883 14.688C101.411 15.904 100.675 17.44 100.675 19.296C100.675 20.832 101.187 22.144 102.211 23.232C103.299 24.32 104.739 25.216 106.531 25.92C108.323 26.624 110.403 27.2 112.771 27.648C115.203 28.032 117.763 28.384 120.451 28.704C124.291 29.152 128.035 29.728 131.683 30.432C135.331 31.072 138.595 32.032 141.475 33.312C144.355 34.592 146.627 36.352 148.291 38.592C150.019 40.768 150.883 43.68 150.883 47.328C150.883 51.808 149.507 55.712 146.755 59.04C144.067 62.304 140.291 64.832 135.427 66.624C130.627 68.416 125.027 69.312 118.627 69.312ZM172.046 68.352V1.15199H184.526V56.832H228.974V68.352H172.046ZM302.258 68.352L275.57 38.016L242.258 1.15199H258.77L284.402 30.24L318.866 68.352H302.258ZM241.778 68.352L273.746 31.776L282.002 39.36L257.714 68.352H241.778ZM286.706 37.152L278.642 29.856L301.778 1.15199H317.81L286.706 37.152ZM368.688 68.928C361.84 68.928 355.824 67.52 350.64 64.704C345.52 61.824 341.52 57.92 338.64 52.992C335.76 48.064 334.32 42.464 334.32 36.192V1.05599H346.896V35.808C346.896 39.968 347.856 43.68 349.776 46.944C351.696 50.144 354.32 52.672 357.648 54.528C360.976 56.384 364.656 57.312 368.688 57.312C373.04 57.312 376.88 56.384 380.208 54.528C383.6 52.672 386.256 50.144 388.176 46.944C390.096 43.68 391.056 39.968 391.056 35.808V1.05599H403.152V36.192C403.152 42.464 401.712 48.064 398.832 52.992C395.952 57.92 391.952 61.824 386.832 64.704C381.712 67.52 375.664 68.928 368.688 68.928ZM429.911 68.352V56.64H447.671V12.864H429.911V1.15199H477.911V12.864H460.151V56.64H477.911V68.352H429.911Z" fill="black"/>
</svg>
