<svg width="128" height="128" viewBox="0 0 128 128" fill="none" xmlns="http://www.w3.org/2000/svg">
<rect width="128" height="128" fill="#09090C"/>
<path d="M7.73475 88V43.2H27.1908C29.8788 43.2 32.3321 43.84 34.5508 45.12C36.7694 46.3573 38.5188 48.064 39.7988 50.24C41.1214 52.3733 41.7828 54.784 41.7828 57.472C41.7828 60.032 41.1214 62.4 39.7988 64.576C38.5188 66.7093 36.7694 68.416 34.5508 69.696C32.3748 70.9333 29.9214 71.552 27.1908 71.552H15.8628V88H7.73475ZM33.7188 88L22.3268 67.776L30.9028 66.176L43.5748 88.064L33.7188 88ZM15.8628 64.32H27.2548C28.4921 64.32 29.5588 64.0427 30.4548 63.488C31.3934 62.8907 32.1188 62.08 32.6308 61.056C33.1428 60.032 33.3988 58.9013 33.3988 57.664C33.3988 56.256 33.0788 55.04 32.4388 54.016C31.7988 52.992 30.9028 52.1813 29.7508 51.584C28.5988 50.9867 27.2761 50.688 25.7828 50.688H15.8628V64.32Z" fill="#F3F3F6"/>
<path d="M69.9673 88.384C66.4259 88.384 63.2686 87.6373 60.4953 86.144C57.7219 84.608 55.5246 82.5173 53.9033 79.872C52.3246 77.184 51.5353 74.1547 51.5353 70.784V43.136H59.9193V70.208C59.9193 72.2133 60.3673 74.0053 61.2633 75.584C62.2019 77.12 63.4393 78.3573 64.9753 79.296C66.5113 80.2347 68.1753 80.704 69.9673 80.704C71.9299 80.704 73.7006 80.2347 75.2793 79.296C76.8579 78.3573 78.0953 77.12 78.9913 75.584C79.9299 74.0053 80.3993 72.2133 80.3993 70.208V43.136H88.4633V70.784C88.4633 74.1547 87.6526 77.184 86.0312 79.872C84.4526 82.5173 82.2766 84.608 79.5033 86.144C76.7299 87.6373 73.5513 88.384 69.9673 88.384ZM98.6408 88V80.64H106.001V50.56H98.6408V43.2H121.681V50.56H114.321V80.64H121.681V88H98.6408Z" fill="#4747FF"/>
</svg>
